PathFileType	4	(X/Y/Z)	markers.trc
DataRate	CameraRate	NumFrames	NumMarkers	Units	OrigDataRate	OrigDataStartFrame	OrigNumFrames
59.94	59.94	20	12	m	59.94	191	507
Frame#	Time	LEFT_SHOULDER			RIGHT_SHOULDER			LEFT_HIP			RIGHT_HIP			LEFT_KNEE			RIGHT_KNEE			LEFT_ANKLE			RIGHT_ANKLE			LEFT_HEEL			RIGHT_HEEL			LEFT_FOOT_INDEX			RIGHT_FOOT_INDEX		
		X1	Y1	Z1	X2	Y2	Z2	X3	Y3	Z3	X4	Y4	Z4	X5	Y5	Z5	X6	Y6	Z6	X7	Y7	Z7	X8	Y8	Z8	X9	Y9	Z9	X10	Y10	Z10	X11	Y11	Z11	X12	Y12	Z12

191	3.169833	5.302438	1.968840	0.000000	5.443558	1.954305	0.000000	5.274971	2.626006	0.000000	5.430815	2.622806	0.000000	5.199203	3.010421	0.000000	5.437904	3.076354	0.000000	5.415815	3.365458	0.000000	5.520135	3.534187	0.000000	5.476654	3.413323	0.000000	5.580439	3.621917	0.000000	5.275523	3.512774	0.000000	5.315751	3.638466	0.000000
192	3.186517	5.293824	1.967487	0.000000	5.433254	1.954115	0.000000	5.266477	2.625673	0.000000	5.422117	2.623005	0.000000	5.183888	3.005681	0.000000	5.436616	3.076533	0.000000	5.381795	3.369587	0.000000	5.518679	3.536415	0.000000	5.442756	3.423983	0.000000	5.578629	3.623419	0.000000	5.227056	3.515358	0.000000	5.314978	3.640815	0.000000
193	3.203200	5.285029	1.966254	0.000000	5.422720	1.953930	0.000000	5.258707	2.625337	0.000000	5.413843	2.623134	0.000000	5.169474	3.001149	0.000000	5.435238	3.076547	0.000000	5.344176	3.374531	0.000000	5.517219	3.538522	0.000000	5.404203	3.435737	0.000000	5.576718	3.624887	0.000000	5.175724	3.516668	0.000000	5.314017	3.643012	0.000000
194	3.219883	5.275782	1.965228	0.000000	5.411806	1.953766	0.000000	5.251418	2.625053	0.000000	5.405871	2.623212	0.000000	5.155757	2.997119	0.000000	5.433737	3.076516	0.000000	5.303589	3.380104	0.000000	5.515906	3.540242	0.000000	5.361193	3.447840	0.000000	5.574920	3.626209	0.000000	5.122946	3.516626	0.000000	5.312961	3.644768	0.000000
195	3.236567	5.265913	1.964452	0.000000	5.400352	1.953631	0.000000	5.244378	2.624857	0.000000	5.398027	2.623259	0.000000	5.142523	2.993789	0.000000	5.432094	3.076539	0.000000	5.260766	3.386023	0.000000	5.514836	3.541465	0.000000	5.314498	3.459662	0.000000	5.573448	3.627359	0.000000	5.070061	3.515025	0.000000	5.311970	3.645944	0.000000
196	3.253250	5.255365	1.963934	0.000000	5.388212	1.953532	0.000000	5.237379	2.624774	0.000000	5.390100	2.623297	0.000000	5.129601	2.991248	0.000000	5.430325	3.076683	0.000000	5.216552	3.391873	0.000000	5.514040	3.542213	0.000000	5.265409	3.470728	0.000000	5.572451	3.628362	0.000000	5.018194	3.511533	0.000000	5.311194	3.646554	0.000000
197	3.269933	5.244090	1.963669	0.000000	5.375280	1.953476	0.000000	5.230187	2.624818	0.000000	5.381879	2.623346	0.000000	5.116910	2.989499	0.000000	5.428460	3.076978	0.000000	5.171905	3.397212	0.000000	5.513487	3.542589	0.000000	5.215447	3.480713	0.000000	5.571960	3.629252	0.000000	4.968237	3.505784	0.000000	5.310728	3.646708	0.000000
198	3.286617	5.231975	1.963665	0.000000	5.361498	1.953478	0.000000	5.222490	2.624985	0.000000	5.373157	2.623417	0.000000	5.104487	2.988493	0.000000	5.426502	3.077411	0.000000	5.127775	3.401715	0.000000	5.513105	3.542719	0.000000	5.166022	3.489399	0.000000	5.571884	3.630059	0.000000	4.920823	3.497549	0.000000	5.310591	3.646545	0.000000
199	3.303300	5.218920	1.963955	0.000000	5.346854	1.953561	0.000000	5.214016	2.625264	0.000000	5.363773	2.623513	0.000000	5.092441	2.988150	0.000000	5.424420	3.077930	0.000000	5.084974	3.405215	0.000000	5.512803	3.542717	0.000000	5.118215	3.496592	0.000000	5.572044	3.630795	0.000000	4.876345	3.486914	0.000000	5.310746	3.646193	0.000000
200	3.319983	5.204966	1.964600	0.000000	5.331381	1.953757	0.000000	5.204687	2.625647	0.000000	5.353665	2.623634	0.000000	5.080837	2.988378	0.000000	5.422165	3.078481	0.000000	5.044136	3.407676	0.000000	5.512489	3.542668	0.000000	5.072741	3.502102	0.000000	5.572227	3.631446	0.000000	4.835019	3.474356	0.000000	5.311132	3.645739	0.000000
201	3.336667	5.190289	1.965671	0.000000	5.315159	1.954109	0.000000	5.194622	2.626152	0.000000	5.342868	2.623786	0.000000	5.069594	2.989097	0.000000	5.419691	3.079041	0.000000	5.005739	3.409184	0.000000	5.512089	3.542621	0.000000	5.030093	3.505848	0.000000	5.572251	3.631975	0.000000	4.796949	3.460691	0.000000	5.311688	3.645227	0.000000
202	3.353350	5.175058	1.967233	0.000000	5.298312	1.954662	0.000000	5.183998	2.626819	0.000000	5.331474	2.623991	0.000000	5.058455	2.990249	0.000000	5.416933	3.079614	0.000000	4.970158	3.409935	0.000000	5.511570	3.542600	0.000000	4.990786	3.507969	0.000000	5.572014	3.632348	0.000000	4.762168	3.446948	0.000000	5.312357	3.644662	0.000000
203	3.370033	5.159345	1.969314	0.000000	5.280968	1.955456	0.000000	5.172912	2.627688	0.000000	5.319563	2.624272	0.000000	5.047047	2.991779	0.000000	5.413780	3.080206	0.000000	4.937739	3.410174	0.000000	5.510953	3.542610	0.000000	4.955479	3.508790	0.000000	5.571517	3.632547	0.000000	4.730696	3.434226	0.000000	5.313083	3.644033	0.000000
204	3.386717	5.143154	1.971886	0.000000	5.263219	1.956509	0.000000	5.161325	2.628772	0.000000	5.307168	2.624650	0.000000	5.034987	2.993615	0.000000	5.410086	3.080790	0.000000	4.908852	3.410138	0.000000	5.510297	3.542646	0.000000	4.924859	3.508710	0.000000	5.570846	3.632568	0.000000	4.702602	3.423488	0.000000	5.313813	3.643336	0.000000
205	3.403400	5.126466	1.974863	0.000000	5.245131	1.957809	0.000000	5.149088	2.630055	0.000000	5.294259	2.625130	0.000000	5.021923	2.995661	0.000000	5.405717	3.081325	0.000000	4.883843	3.410027	0.000000	5.509661	3.542694	0.000000	4.899395	3.508112	0.000000	5.570121	3.632415	0.000000	4.678036	3.415391	0.000000	5.314493	3.642602	0.000000
206	3.420083	5.109286	1.978112	0.000000	5.226782	1.959324	0.000000	5.135965	2.631499	0.000000	5.280745	2.625715	0.000000	5.007571	2.997840	0.000000	5.400569	3.081760	0.000000	4.862891	3.409996	0.000000	5.509089	3.542727	0.000000	4.879129	3.507321	0.000000	5.569451	3.632072	0.000000	4.657200	3.410271	0.000000	5.315077	3.641890	0.000000
207	3.436767	5.091677	1.981474	0.000000	5.208255	1.961012	0.000000	5.121690	2.633051	0.000000	5.266521	2.626410	0.000000	4.991804	3.000104	0.000000	5.394521	3.082046	0.000000	4.845908	3.410158	0.000000	5.508592	3.542699	0.000000	4.863643	3.506583	0.000000	5.568901	3.631488	0.000000	4.640223	3.408248	0.000000	5.315538	3.641266	0.000000
208	3.453450	5.073748	1.984776	0.000000	5.189590	1.962839	0.000000	5.106091	2.634632	0.000000	5.251528	2.627215	0.000000	4.974739	3.002391	0.000000	5.387383	3.082108	0.000000	4.832518	3.410587	0.000000	5.508145	3.542535	0.000000	4.852203	3.506044	0.000000	5.568478	3.630570	0.000000	4.626995	3.409292	0.000000	5.315871	3.640766	0.000000
209	3.470133	5.055624	1.987862	0.000000	5.170771	1.964766	0.000000	5.089211	2.636137	0.000000	5.235799	2.628098	0.000000	4.956717	3.004585	0.000000	5.378930	3.081848	0.000000	4.822148	3.411308	0.000000	5.507676	3.542123	0.000000	4.843970	3.505752	0.000000	5.568133	3.629209	0.000000	4.617086	3.413275	0.000000	5.316087	3.640384	0.000000
210	3.486817	5.037445	1.990610	0.000000	5.151788	1.966741	0.000000	5.071324	2.637449	0.000000	5.219406	2.628971	0.000000	4.938181	3.006536	0.000000	5.368985	3.081154	0.000000	4.814167	3.412284	0.000000	5.507053	3.541310	0.000000	4.838207	3.505675	0.000000	5.567774	3.627301	0.000000	4.609854	3.419962	0.000000	5.316212	3.640089	0.000000
